<svg version="1.1" id="Layer_1" xmlns="http://www.w3.org/2000/svg" xmlns:xlink="http://www.w3.org/1999/xlink" x="0px" y="0px"
	 width="100%" viewBox="0 0 720 720" enable-background="new 0 0 720 720" xml:space="preserve">
<path fill="#ffffff" opacity="1.000000" stroke="none" 
	d="
M135.809937,324.128052 
	C138.955627,315.319824 144.612274,310.859680 152.308243,310.775208 
	C159.637543,310.694763 165.951294,315.023468 168.487778,321.934021 
	C168.884033,323.013611 169.427399,324.248840 169.245346,325.298004 
	C167.748367,333.924805 174.825470,337.387909 179.370636,342.363251 
	C180.667862,343.783264 182.127594,343.576904 183.183975,342.118927 
	C187.026886,336.815155 192.501022,336.114563 198.364807,336.722198 
	C202.696838,337.171082 205.839264,335.679688 208.872986,332.481293 
	C213.133881,327.989166 216.759323,322.416718 223.796036,321.431885 
	C224.754868,321.297638 225.539459,319.567383 226.311646,318.508240 
	C231.072601,311.977844 238.825119,309.308899 246.150681,311.712158 
	C253.125687,314.000427 257.718201,320.565674 257.652374,328.154388 
	C257.587982,335.572754 252.951141,342.065216 246.241211,344.132050 
	C238.158310,346.621704 231.607254,344.399719 226.511337,337.452240 
	C225.830154,336.523560 225.105179,335.626953 224.275909,334.554382 
	C221.167801,335.583344 219.575027,338.271210 217.427658,340.231750 
	C215.903290,341.623535 216.757828,342.918274 217.909775,344.074768 
	C222.260437,348.442627 226.621719,352.799927 230.962341,357.177734 
	C232.673096,358.903137 234.840256,358.883972 237.021881,358.871521 
	C245.021408,358.825836 253.020966,358.755463 261.020477,358.760345 
	C262.672180,358.761353 264.412994,358.765717 265.957062,359.257446 
	C269.338745,360.334259 271.366150,362.748138 270.805664,366.414673 
	C270.276276,369.877960 267.468689,370.735535 264.430695,370.769836 
	C255.442780,370.871338 246.453079,370.991760 237.466095,370.901489 
	C234.251999,370.869202 231.659729,371.641541 229.456680,374.072876 
	C225.440765,378.505035 221.280624,382.806488 216.859772,387.503387 
	C218.032898,390.161774 220.759811,392.008850 223.149200,394.031494 
	C225.114212,393.624603 225.534210,391.995789 226.371582,390.843231 
	C231.323547,384.027374 239.833862,381.538391 247.188721,384.831909 
	C254.622498,388.160767 258.642944,396.033875 257.082550,404.206665 
	C255.598663,411.978760 248.612122,417.202209 239.969757,417.359009 
	C233.959335,417.468048 229.285629,415.221771 225.847351,410.381042 
	C224.661835,408.711975 223.168488,407.853302 221.306595,406.908173 
	C213.883636,403.140076 208.365265,397.029358 204.213715,389.999359 
	C202.219193,386.621918 204.005447,382.869110 206.860519,380.062012 
	C210.662155,376.324280 214.259201,372.344330 218.322205,368.916595 
	C222.038940,365.780945 221.544601,363.450775 218.165283,360.593750 
	C215.501709,358.341858 212.962982,355.873077 210.727753,353.200439 
	C207.598679,349.459137 203.849060,348.374603 199.012650,348.020020 
	C193.295425,347.600891 190.592499,351.319214 187.212997,354.288605 
	C184.344360,356.809113 181.847717,359.748535 179.118790,362.433838 
	C176.747833,364.766907 176.672073,366.905701 179.172516,369.236481 
	C182.828110,372.644043 186.348129,376.196594 189.964523,379.646851 
	C192.094681,381.679108 193.686783,383.879181 193.335373,387.056366 
	C193.066940,389.483490 191.747711,391.094299 189.592178,391.918976 
	C187.319382,392.788513 185.136307,392.136444 183.788498,390.206604 
	C179.735687,384.403534 174.097214,380.154724 169.311096,375.076447 
	C162.880844,368.253632 162.607407,362.427124 169.427658,356.071991 
	C173.040039,352.705872 172.341339,350.736359 169.236938,347.722046 
	C165.654129,344.243256 163.021378,341.982666 157.039291,344.258881 
	C144.698990,348.954285 134.914337,339.374939 135.809937,324.128052 
M244.261627,323.111542 
	C241.321777,321.574371 238.519333,321.652161 236.139786,324.115967 
	C234.704605,325.601959 234.030960,327.424927 234.827362,329.551300 
	C235.705154,331.895050 237.210297,333.495514 239.796585,333.758270 
	C242.482330,334.031128 244.794113,333.130951 246.081238,330.737701 
	C247.458282,328.177246 247.152008,325.646759 244.261627,323.111542 
M158.470779,329.075592 
	C158.783707,327.539246 158.513947,326.121613 157.616592,324.827026 
	C155.566635,321.869476 152.604660,321.472504 149.716812,322.809631 
	C146.910156,324.109222 145.633560,326.769745 146.796448,329.870178 
	C148.019012,333.129791 150.666519,334.270660 154.002228,333.594452 
	C156.089554,333.171295 157.481339,331.782898 158.470779,329.075592 
M240.429031,406.608490 
	C245.693039,404.907471 247.802765,401.772278 245.909256,398.241852 
	C244.575958,395.755951 242.484833,394.033356 239.507736,394.670654 
	C236.771591,395.256409 234.647964,396.976654 234.386780,399.979462 
	C234.060486,403.730804 236.248474,405.724976 240.429031,406.608490 
z"/>
<path fill="#000000" opacity="1.000000" stroke="none" 
	d="
M381.703735,370.613403 
	C378.511749,370.453064 375.677338,370.282806 372.856659,370.411896 
	C368.988922,370.588959 367.925201,368.428955 368.027710,365.109253 
	C368.124084,361.988312 367.510345,358.284119 372.263641,358.168152 
	C378.749573,358.009857 385.242035,358.062134 391.731049,358.111023 
	C394.282623,358.130219 395.816589,359.476135 395.776520,362.135468 
	C395.653748,370.284485 395.645294,378.441406 395.233582,386.577087 
	C395.043213,390.339172 392.269897,392.813904 388.744598,393.169647 
	C376.979889,394.356842 365.150665,394.621246 353.395782,393.162292 
	C348.363251,392.537689 344.855255,387.711456 344.765045,381.781189 
	C344.585388,369.965424 344.547638,358.142334 344.757507,346.327728 
	C344.880341,339.413483 349.624390,334.822083 356.549866,334.697754 
	C368.031738,334.491577 379.520569,334.662048 391.001831,334.437408 
	C395.692505,334.345612 395.943115,337.199615 396.004486,340.604340 
	C396.067108,344.079437 395.632721,347.050537 391.129028,347.048615 
	C381.973969,347.044739 372.813995,347.251282 363.665894,347.004730 
	C358.980927,346.878479 357.020477,348.346741 357.236023,353.273865 
	C357.563049,360.750397 357.461334,368.254578 357.282013,375.740814 
	C357.185181,379.783264 358.512177,381.554474 362.796967,381.206543 
	C367.097900,380.857330 371.445251,381.062805 375.772308,381.056000 
	C383.389771,381.043976 384.983704,378.441956 381.703735,370.613403 
z"/>
<path fill="#000000" opacity="1.000000" stroke="none" 
	d="
M426.001617,334.623047 
	C432.661713,334.620239 438.842743,334.928345 444.976868,334.524353 
	C450.750397,334.144165 450.305420,337.738434 450.550812,341.534607 
	C450.829651,345.848236 448.714996,347.136078 444.886292,347.111267 
	C436.561707,347.057343 428.235992,347.150909 419.911743,347.075806 
	C415.835541,347.039062 414.251373,348.993164 414.352783,352.934814 
	C414.438385,356.261780 415.954926,357.844910 419.237305,357.844482 
	C424.898163,357.843689 430.559570,357.806122 436.219788,357.867981 
	C447.234344,357.988373 451.312317,362.079803 451.333954,372.936127 
	C451.338593,375.267151 451.342987,377.598267 451.331299,379.929230 
	C451.283600,389.448212 447.101257,393.739746 437.709930,393.810272 
	C428.406982,393.880127 419.103546,393.882141 409.800323,393.913605 
	C403.506714,393.934875 402.116730,392.896240 402.112823,388.170746 
	C402.107605,381.865601 402.790924,381.148163 409.384521,381.089142 
	C416.876556,381.022095 424.369720,381.017487 431.861938,381.064026 
	C435.554504,381.086975 438.810425,381.243591 438.826172,375.844147 
	C438.842529,370.228546 435.477264,370.281982 431.558350,370.336975 
	C425.731995,370.418793 419.902527,370.420380 414.076263,370.332581 
	C407.023010,370.226288 402.440887,366.082184 401.947479,359.054901 
	C401.621674,354.414825 401.565582,349.719482 401.869232,345.080322 
	C402.288879,338.668610 406.550629,334.828613 413.015015,334.649078 
	C417.174408,334.533569 421.339539,334.624573 426.001617,334.623047 
z"/>
<path fill="#000000" opacity="1.000000" stroke="none" 
	d="
M184.358856,412.980591 
	C194.844711,402.871033 209.585388,405.318085 214.478867,417.708405 
	C217.884369,426.331146 213.766235,436.121643 205.221832,439.716278 
	C196.360275,443.444305 186.092209,439.650421 182.617096,431.078217 
	C181.483521,428.281982 180.354736,426.644440 177.065231,425.777740 
	C172.832413,424.662506 170.335693,420.534485 167.327927,417.465393 
	C165.020111,415.110535 163.148972,414.030762 159.610809,415.860107 
	C152.711075,419.427551 144.448364,417.480286 139.554764,411.945068 
	C134.908096,406.689148 134.103912,397.453766 137.764267,391.382751 
	C141.619720,384.988190 149.280228,382.069092 156.894669,384.092957 
	C164.355682,386.076050 168.990356,391.955780 169.291092,400.206177 
	C169.376678,402.554810 170.057053,404.319824 171.778793,405.887817 
	C174.482620,408.350220 177.059494,410.952545 179.677277,413.508789 
	C181.285538,415.079193 182.782608,415.332794 184.358856,412.980591 
M204.091446,421.541382 
	C202.372162,418.894958 200.245667,416.767975 196.810257,417.981293 
	C193.501129,419.150024 191.516846,421.584290 192.523560,425.272949 
	C193.415100,428.539581 195.817139,430.267639 199.269608,429.685944 
	C203.413635,428.987610 205.166840,426.400360 204.091446,421.541382 
M155.803040,395.775940 
	C152.577393,394.024353 149.745316,394.518982 147.479004,397.409912 
	C145.848312,399.490021 145.930084,401.772461 147.522339,403.796753 
	C149.728180,406.601166 152.490646,407.599579 155.727127,405.450653 
	C159.049667,403.244568 159.220245,400.299286 155.803040,395.775940 
z"/>
<path fill="#000000" opacity="1.000000" stroke="none" 
	d="
M317.044250,381.091553 
	C322.700348,381.099060 327.865875,381.187592 333.027985,381.092651 
	C337.308990,381.013916 338.377563,383.279449 338.223572,387.116547 
	C338.081207,390.664032 338.183594,393.837280 333.233948,393.934967 
	C322.582275,394.145233 311.947052,393.489014 301.285126,393.684418 
	C292.302124,393.849030 288.749481,389.612915 288.690613,380.619568 
	C288.617584,369.458923 288.614746,358.296997 288.695770,347.136444 
	C288.755615,338.892761 292.842529,334.728668 300.883820,334.654816 
	C311.710968,334.555389 322.542908,334.720673 333.364960,334.454376 
	C337.754761,334.346313 338.260712,336.669617 338.249329,340.078430 
	C338.237701,343.553589 338.551575,347.025055 333.499664,347.012634 
	C325.503906,346.993011 317.507935,347.050873 309.512115,347.041962 
	C301.333954,347.032867 301.315582,347.026764 301.314880,354.943298 
	C301.314270,361.939819 301.434784,368.938385 301.298004,375.932098 
	C301.216858,380.079681 303.002594,381.668274 307.065063,381.328033 
	C310.211914,381.064484 313.388702,381.158203 317.044250,381.091553 
z"/>
<path fill="#000000" opacity="1.000000" stroke="none" 
	d="
M592.542236,344.434387 
	C588.836426,347.841583 584.671631,346.112366 580.835388,346.298828 
	C574.067810,346.627747 573.943665,346.518097 573.946472,353.463654 
	C573.950989,364.620331 574.012268,375.777130 573.984497,386.933685 
	C573.968811,393.254059 569.863770,395.854706 563.751892,393.707764 
	C561.084045,392.770569 561.558960,390.759430 561.561096,388.802979 
	C561.574646,376.647247 561.447815,364.488892 561.673767,352.337097 
	C561.757141,347.849609 560.390808,345.765228 555.675964,346.347321 
	C553.376770,346.631165 551.017395,346.512970 548.688904,346.447968 
	C546.630615,346.390503 543.962158,347.315033 543.026855,344.624146 
	C542.109314,341.984650 541.547241,339.113068 542.692444,336.315491 
	C543.403748,334.577881 545.047058,334.657196 546.531250,334.656128 
	C560.518860,334.646088 574.506958,334.599335 588.493713,334.714111 
	C593.029724,334.751343 593.745117,336.530701 592.542236,344.434387 
z"/>
<path fill="#000000" opacity="1.000000" stroke="none" 
	d="
M212.741318,295.544434 
	C217.076004,304.678711 215.849365,312.752228 209.567154,318.155304 
	C203.712982,323.190216 195.047913,323.775391 188.724899,319.435303 
	C182.539337,315.189636 180.559326,309.015106 181.803787,301.964844 
	C183.023483,295.054779 187.051590,290.280762 194.157394,288.490997 
	C201.842255,286.555328 207.811401,289.142975 212.741318,295.544434 
M203.397949,308.794067 
	C205.472946,304.073517 204.315247,300.654602 200.151901,299.207764 
	C197.078140,298.139587 193.608795,300.306580 192.650635,303.858032 
	C191.955246,306.435516 192.935608,308.425323 194.868088,309.992157 
	C197.713089,312.298767 200.385223,311.542450 203.397949,308.794067 
z"/>
<path fill="#000000" opacity="1.000000" stroke="none" 
	d="
M537.049683,338.441376 
	C537.077698,354.846100 537.121826,370.794861 537.070312,386.743317 
	C537.049438,393.208801 533.248901,395.722290 526.926636,393.762451 
	C524.927979,393.142883 524.500732,391.824097 524.488831,389.990143 
	C524.380371,373.228302 524.233093,356.466675 524.110718,339.704926 
	C524.089661,336.829315 524.605225,334.120544 528.264465,334.233887 
	C531.587463,334.336792 535.979248,332.406464 537.049683,338.441376 
z"/>
<path fill="#000000" opacity="1.000000" stroke="none" 
	d="
M498.354828,366.128906 
	C498.273499,373.131256 498.162903,373.250427 491.632385,373.270752 
	C487.491821,373.283661 483.350464,373.214630 479.210693,373.271667 
	C474.864441,373.331543 474.726868,370.454926 474.635071,367.228943 
	C474.538361,363.830566 475.570862,361.808838 479.337738,361.863159 
	C484.305389,361.934784 489.274933,361.871338 494.243652,361.877350 
	C496.764465,361.880402 498.394073,362.871704 498.354828,366.128906 
z"/>
<path fill="#000000" opacity="1.000000" stroke="none" 
	d="
M194.110321,359.686157 
	C195.245773,359.237305 196.013580,358.841339 196.812073,358.764648 
	C200.839874,358.377838 204.107376,359.588745 205.442520,363.727356 
	C206.444611,366.833649 205.237091,369.585541 202.330078,370.714722 
	C199.049118,371.989197 195.276932,372.346344 192.763962,369.100800 
	C190.326950,365.953369 190.512039,362.644287 194.110321,359.686157 
z"/>
</svg>